<svg xmlns="http://www.w3.org/2000/svg" width="50" height="50" viewBox="0 0 50 50">
  <g id="Collision_Coverage" data-name="Collision Coverage" transform="translate(-14320 -1783)">
    <g id="Ellipse_64" data-name="Ellipse 64" transform="translate(14320 1783)" fill="#fff" stroke="#dc0000" stroke-width="0.5">
      <circle cx="25" cy="25" r="25" stroke="none"/>
      <circle cx="25" cy="25" r="24.75" fill="none"/>
    </g>
    <g id="parking-crash" transform="translate(14329 1698.45)">
      <path id="Path_3086" data-name="Path 3086" d="M15.4,98.9l.476-.476c.086-.043.128-.086.219-.086a.52.52,0,0,1,.391.262l2.949,3.864-3.864-2.949C15.311,99.289,15.225,99.075,15.4,98.9Zm4.517,2.6L18.4,97.855a.367.367,0,0,0-.305-.305.157.157,0,0,0-.128.043l-.476.262c-.171.086-.171.305.043.519Zm12.1,1.306c0-.043-9.847-.043-9.847-.043a.779.779,0,0,0-.781.781v1a.779.779,0,0,0,.781.781h8.108v13.8a.733.733,0,0,0,.739.739h1a.733.733,0,0,0,.739-.739V103.587A.771.771,0,0,0,32.013,102.805Zm-16.66-.433,3.907.519-3.645-1.477a.42.42,0,0,0-.305-.086c-.086,0-.128.086-.171.171l-.128.519C14.963,102.2,15.092,102.372,15.354,102.372Zm13.277,10.152V116a1.189,1.189,0,0,1-1.349,1.172H24.334a2.809,2.809,0,0,1-2.82,2.644,2.853,2.853,0,0,1-2.863-2.644H8.413a2.809,2.809,0,0,1-2.82,2.644,2.839,2.839,0,0,1-2.82-2.644H1.252C.171,117.169,0,116.693,0,116v-3.339a3.117,3.117,0,0,1,.348-1.6L3.3,105.2A2.54,2.54,0,0,1,5.378,103.9H16.74a2.441,2.441,0,0,1,2.044,1.306l2.735,4.3,5.421,1.215A1.764,1.764,0,0,1,28.631,112.524ZM7.112,116.95A1.515,1.515,0,1,0,5.6,118.464,1.534,1.534,0,0,0,7.112,116.95Zm3.083-11.41H6.026a1.362,1.362,0,0,0-1.306,1.044l-1.349,2.949h6.813V105.54Zm9.023,3.992-1.777-2.949a1.9,1.9,0,0,0-1.6-1.044H12.02v3.992h7.2Zm3.816,7.417a1.515,1.515,0,1,0-1.515,1.515A1.506,1.506,0,0,0,23.033,116.95Z" transform="translate(0 0)" fill="#dc0000"/>
    </g>
  </g>
</svg>
