<svg xmlns="http://www.w3.org/2000/svg" width="50" height="50" viewBox="0 0 50 50">
  <g id="Collision_Coverage" data-name="Collision Coverage" transform="translate(-14320 -1783)">
    <g id="Ellipse_64" data-name="Ellipse 64" transform="translate(14320 1783)" fill="#fff" stroke="#dc0000" stroke-width="0.5">
      <circle cx="25" cy="25" r="25" stroke="none"/>
      <circle cx="25" cy="25" r="24.75" fill="none"/>
    </g>
    <g id="XMLID_1143_" transform="translate(14329.419 1758.002)">
      <g id="Group_194" data-name="Group 194" transform="translate(0 35.635)">
        <g id="Group_193" data-name="Group 193" transform="translate(0 0)">
          <circle id="Ellipse_66" data-name="Ellipse 66" cx="1.824" cy="1.824" r="1.824" transform="translate(23.003 6.761)" fill="#dc0000"/>
          <path id="Path_3087" data-name="Path 3087" d="M32.3,96.823,29.082,91.95a1.232,1.232,0,0,0-1.707-.349l-1.834,1.211a1.229,1.229,0,0,0-.55.965l1.592-.825-2.719,2.282-2.522,1.088a3.892,3.892,0,0,0-1.8-1.564l-1.287-6.785a.816.816,0,0,0-.8-.664H4.454a.816.816,0,0,0-.8.664L2.365,94.758A3.879,3.879,0,0,0,0,98.33v3.239a1.451,1.451,0,0,0,1.451,1.451h.476v1.668a1.914,1.914,0,1,0,3.828,0V103.02H16.146v1.668a1.914,1.914,0,1,0,3.828,0V103.02h.476a1.451,1.451,0,0,0,1.451-1.451V98.33a3.924,3.924,0,0,0-.025-.439L24.63,96.7a.824.824,0,0,0,.2-.126l2.812-2.36-1.423,1.862,1.034,1.566.417.632L26,99.792a.962.962,0,0,0-.259.388l-1.84,5.134a.963.963,0,1,0,1.812.65l1.759-4.907,2.2-1.926-.767,1.431a.976.976,0,0,0-.088.676l1.093,4.623a.963.963,0,1,0,1.873-.443l-1.009-4.268,1.7-3.175C32.692,97.545,32.534,97.234,32.3,96.823ZM3.787,100.8a1.807,1.807,0,1,1,1.807-1.82s0,.009,0,.013A1.807,1.807,0,0,1,3.787,100.8Zm.3-6.353,1.046-5.51H16.772l1.046,5.51ZM19.9,99.244a1.807,1.807,0,0,1-3.6-.247s0-.009,0-.013a1.807,1.807,0,1,1,3.6.26Z" transform="translate(0 -81.724)" fill="#dc0000"/>
          <path id="Path_3088" data-name="Path 3088" d="M198.258,55.321a.56.56,0,0,0,1-.51l-1.143-2.233a.56.56,0,0,0-1,.51Z" transform="translate(-175.754 -50.474)" fill="#dc0000"/>
          <path id="Path_3089" data-name="Path 3089" d="M224.813,40.777a.56.56,0,0,0,.652-.449l.744-4.032a.56.56,0,0,0-1.1-.2l-.744,4.032A.56.56,0,0,0,224.813,40.777Z" transform="translate(-200.104 -35.635)" fill="#dc0000"/>
        </g>
      </g>
    </g>
  </g>
</svg>
