<svg xmlns="http://www.w3.org/2000/svg" width="50" height="50" viewBox="0 0 50 50">
  <g id="Comprehensive_Coverage" data-name="Comprehensive Coverage" transform="translate(-14225 -1783)">
    <g id="Ellipse_63" data-name="Ellipse 63" transform="translate(14225 1783)" fill="#fff" stroke="#dc0000" stroke-width="0.5">
      <circle cx="25" cy="25" r="25" stroke="none"/>
      <circle cx="25" cy="25" r="24.75" fill="none"/>
    </g>
    <g id="vehicle-repair" transform="translate(14235 1740.4)">
      <path id="Path_3085" data-name="Path 3085" d="M17.678,70.8v8.407a.916.916,0,0,1-.9.956H13.5a.958.958,0,0,1-.956-.956V70.8a6.427,6.427,0,0,1-1.31-10.977s0,4.934.049,4.934l3.174,3.174a.942.942,0,0,0,1.31,0l3.173-3.174v-4.93A6.429,6.429,0,0,1,21.5,64.964,6.343,6.343,0,0,1,17.678,70.8Zm12.341-.952v9.467a.734.734,0,0,1-.706.755H25.584a.734.734,0,0,1-.706-.755V76.946h-6.44V71.208A7.314,7.314,0,0,0,21.96,66.98h3.924l-3.169-6.651a2.346,2.346,0,0,0-2.565-1.614H9.879a2.288,2.288,0,0,0-2.516,1.614L4.189,66.98H8.113a7.3,7.3,0,0,0,3.522,4.228v5.744H5.189v2.369a.734.734,0,0,1-.706.755H.755A.775.775,0,0,1,0,79.321V69.849a5.417,5.417,0,0,1,.6-2.516l4.65-9.668A3.961,3.961,0,0,1,8.471,55.6H21.557a3.852,3.852,0,0,1,3.223,2.065l4.63,9.668A5.157,5.157,0,0,1,30.019,69.849ZM2.575,71.914A2.321,2.321,0,1,0,4.9,69.545,2.315,2.315,0,0,0,2.575,71.914Zm25.025,0a2.368,2.368,0,0,0-2.369-2.369,2.326,2.326,0,0,0-2.32,2.369,2.282,2.282,0,0,0,2.32,2.32A2.326,2.326,0,0,0,27.6,71.914Z" fill="#dc0000"/>
    </g>
  </g>
</svg>
