<svg xmlns="http://www.w3.org/2000/svg" width="50" height="50" viewBox="0 0 50 50">
  <g id="Gap_Insurance" data-name="Gap Insurance" transform="translate(-14411 -1783)">
    <g id="Group_192" data-name="Group 192">
      <g id="Ellipse_65" data-name="Ellipse 65" transform="translate(14411 1783)" fill="#fff" stroke="#dc0000" stroke-width="0.5">
        <circle cx="25" cy="25" r="25" stroke="none"/>
        <circle cx="25" cy="25" r="24.75" fill="none"/>
      </g>
      <g id="insurance-agent" transform="translate(14393.684 1792.067)">
        <g id="XMLID_855_" transform="translate(30.106 0)">
          <circle id="XMLID_932_" cx="2.299" cy="2.299" r="2.299" transform="translate(4 0)" fill="#dc0000"/>
          <path id="XMLID_951_" d="M85.015,235.6s0,10.5,0,11.83a1.331,1.331,0,1,0,2.663,0V237.089a.3.3,0,0,1,.3-.3.276.276,0,0,1,.276.276v10.366a1.331,1.331,0,1,0,2.663,0L90.891,235.1C87.507,236.909,88.093,236.888,85.015,235.6Z" transform="translate(-81.681 -220.826)" fill="#dc0000"/>
          <path id="XMLID_973_" d="M191.57,209.657l-1.631.87.011,2.094a1.109,1.109,0,0,0,1.109,1.1h.006a1.109,1.109,0,0,0,1.1-1.115l-.017-3.39A2.375,2.375,0,0,1,191.57,209.657Z" transform="translate(-180.234 -196.516)" fill="#dc0000"/>
          <path id="XMLID_1096_" d="M252.839,4.6a2.3,2.3,0,1,0-2.3-2.3A2.3,2.3,0,0,0,252.839,4.6Z" transform="translate(-237.155 0)" fill="#dc0000"/>
          <path id="XMLID_1100_" d="M292.893,401.325v2.236a1.331,1.331,0,0,0,2.663,0v-2.075h-1.928A1.755,1.755,0,0,1,292.893,401.325Z" transform="translate(-276.936 -376.956)" fill="#dc0000"/>
          <path id="XMLID_1107_" d="M54.386,100.6a.551.551,0,0,0-.551-.551H52.621V98.628a.646.646,0,0,0-.646-.646h-.552l-.038-7.567A2.631,2.631,0,0,0,48.759,87.8H41.985a1.109,1.109,0,0,0-1.044.733l-1.517,4.2-3.4,1.813L32.553,93.1l.883-3.077h0V92.1l2.523,1.055,2.437-1.3c.137-.38,1.425-3.933,1.474-4.049l-7.273,0a1.11,1.11,0,0,0-1.066.8l-1.386,4.829a1.113,1.113,0,0,0,.635,1.328l0,0L35.645,96.8a1.158,1.158,0,0,0,.972-.043l0,0h0L40.846,94.5a1.127,1.127,0,0,0,.521-.6c.2-.562,1.454-3.864,1.457-3.873,0,.278,0,19.054,0,19.054a1.331,1.331,0,0,0,2.663,0v-2.657a1.759,1.759,0,0,1-.457-1.183V100.6a1.759,1.759,0,0,1,.457-1.183v-.69a.289.289,0,0,1,.289-.289.285.285,0,0,1,.285.285v.272a1.752,1.752,0,0,1,.656-.159v-.205A1.94,1.94,0,0,1,48.7,96.689V90.431a.232.232,0,0,1,.464-.006l.038,7.556h-.546a.646.646,0,0,0-.646.646v.2h0v1.214H46.8a.551.551,0,0,0-.551.551v4.638a.551.551,0,0,0,.551.551h7.037a.551.551,0,0,0,.551-.551V100.6Z" transform="translate(-30.106 -82.471)" fill="#dc0000"/>
        </g>
      </g>
    </g>
  </g>
</svg>
