<svg id="Group_1" data-name="Group 1" xmlns="http://www.w3.org/2000/svg" width="1920" height="716.363" viewBox="0 0 1920 716.363">
  <rect id="Rectangle_1" data-name="Rectangle 1" width="1920" height="716" fill="#fff"/>
  <g id="Layer_2" data-name="Layer 2" transform="translate(938.995)">
    <g id="OBJECTS" transform="translate(0.005)" opacity="0.83">
      <path id="Path_3084" data-name="Path 3084" d="M902.743,330.854V716.363H771.123c1.966-25.879-3.421-51.512-18.826-74.085-22.565-32.793-62.216-53.179-103.924-64.63-45.517-12.516-96.709-5.329-140.131-20.66-18.89-6.668-35.783-19.321-41.392-35.99-5.157-15.44-.193-31.809,1.741-47.8s-.612-34.433-15.828-43.97c-15.7-9.865-37.619-6.012-56.51-1.722-31.043,7.05-97.031,34.761-118.275-.711-14.6-24.376,17.694-49.189,27.721-75.26,10.638-27.683-6.448-59-33.686-76.818s-62.253-24.588-96.42-27.317c-25.789-2.214-52.383-2.733-76.911-9.947s-47.613-23.256-52.448-44.9c-9.961-43.7,53.189-74.577,65.214-117.891C118.924,47.686,104.32,19.129,80.079,0H235.264c-16.859,46.183-7.092,107.67,58.928,114.967,67.7,8.2,145.063-46.457,196.643,5.465,38.683,38.258-9.673,101.112,51.578,128.439,74.143,30.06,148.285-5.465,222.429-2.733h.484c24.866.214,46.638,14.2,53.609,34.433C837.626,333.969,871.056,317.71,902.743,330.854Z" transform="translate(78.257)" fill="#dc0000" opacity="0.07"/>
      <path id="Path_3085" data-name="Path 3085" d="M902.743,549.009V716.363H771.123c1.966-25.879-3.421-51.512-18.826-74.085-22.565-32.793-62.216-53.179-103.924-64.63-45.517-12.516-96.709-5.329-140.131-20.66-18.89-6.668-35.783-19.321-41.392-35.99-5.157-15.44-.193-31.809,1.741-47.8s-.612-34.433-15.828-43.97c-15.7-9.865-37.619-6.012-56.51-1.722-31.043,7.051-97.031,34.761-118.275-.71-14.6-24.376,17.694-49.19,27.721-75.26,10.638-27.683-6.448-59-33.686-76.818s-62.253-24.589-96.42-27.318c-25.789-2.214-52.383-2.733-76.911-9.947s-47.613-23.256-52.448-44.9c-9.961-43.7,53.189-74.577,65.214-117.891C118.924,47.686,104.32,19.129,80.079,0h87.292c4.255,27.327,2.16,56.623-2.9,72.582-9.284,29.186-31.913,57.8-23.145,87.147,9.673,32.793,55.027,49.189,95.031,49s79.075-11.478,119.08-11.45c31.5,0,66.531,9.7,80.139,33.777,23.274,41.155-30.434,86.683-24.918,132.074,5.287,43.724,63.473,69.111,115.147,69.931S627.9,418.495,679.57,417.676c38.683-.6,82.847,10.6,98.578,40.636,6.8,13.035,7.314,27.929,14.022,40.991,12.539,24.349,44.034,37.548,74.466,43.724C878.469,545.512,890.622,547.233,902.743,549.009Z" transform="translate(78.257)" fill="#ac0000" opacity="0.08"/>
      <path id="Path_3086" data-name="Path 3086" d="M435.415,213.385s-85.644,5.985-191.292,5.985S52.83,213.385,52.83,213.385s85.644-5.985,191.292-5.985S435.415,213.385,435.415,213.385Z" transform="translate(91.529 359.372)" fill="#e18256"/>
      <path id="Path_3087" data-name="Path 3087" d="M162.625,108.56v12.379l-6.4,6.285H143.96V108.56Z" transform="translate(249.434 188.107)" fill="#f4eed8"/>
      <path id="Path_3088" data-name="Path 3088" d="M154.845,113.09l-6.4,6.285V113.09Z" transform="translate(257.214 195.957)" fill="#ebe0be"/>
      <rect id="Rectangle_134" data-name="Rectangle 134" width="18.665" height="18.665" transform="translate(366.613 278.577)" fill="#fff"/>
      <path id="Path_3089" data-name="Path 3089" d="M230.538,69.584A16.014,16.014,0,1,1,214.524,53.57,16.014,16.014,0,0,1,230.538,69.584Z" transform="translate(343.956 92.823)" fill="#dc0000"/>
      <path id="Path_3090" data-name="Path 3090" d="M259.2,239.014a16.014,16.014,0,1,1-4.719-11.353A16.014,16.014,0,0,1,259.2,239.014Z" transform="translate(393.616 386.403)" fill="#ac0000"/>
      <path id="Path_3091" data-name="Path 3091" d="M212.925,53.185a9.893,9.893,0,1,1-9.865-9.865,9.893,9.893,0,0,1,9.865,9.865Z" transform="translate(334.651 75.063)" fill="#ac0000"/>
      <path id="Path_3092" data-name="Path 3092" d="M236.19,226a9.865,9.865,0,1,1-9.865-9.865A9.865,9.865,0,0,1,236.19,226Z" transform="translate(375.059 374.499)" fill="#dc0000"/>
      <path id="Path_3093" data-name="Path 3093" d="M147.613,139.707l.765,2.733.765-2.733a8.772,8.772,0,0,1,4.236-5.329h0a8.718,8.718,0,0,1-4.236-5.465l-.765-2.733-.765,2.733a8.854,8.854,0,0,1-4.263,5.465h0a8.909,8.909,0,0,1,4.263,5.329Z" transform="translate(248.377 218.638)" fill="#fff"/>
      <path id="Path_3094" data-name="Path 3094" d="M144.389,141.68l.6,2.077.6-2.077a6.86,6.86,0,0,1,3.279-4.126h0a6.722,6.722,0,0,1-3.279-4.1l-.6-2.1-.6,2.1a6.722,6.722,0,0,1-3.279,4.1h0A6.859,6.859,0,0,1,144.389,141.68Z" transform="translate(244.496 227.597)" fill="#fff"/>
      <path id="Path_3095" data-name="Path 3095" d="M280.576,113.987l.765,2.733.765-2.733a8.854,8.854,0,0,1,4.263-5.465h0a8.909,8.909,0,0,1-4.263-5.329l-.765-2.733-.765,2.733a8.772,8.772,0,0,1-4.236,5.329h0a8.717,8.717,0,0,1,4.236,5.465Z" transform="translate(478.816 174.072)" fill="#fff"/>
      <path id="Path_3096" data-name="Path 3096" d="M277.379,115.96l.6,2.077.574-2.077a6.886,6.886,0,0,1,3.279-4.126h0a6.8,6.8,0,0,1-3.279-4.126l-.574-2.077-.6,2.077a6.805,6.805,0,0,1-3.279,4.126h0a6.887,6.887,0,0,1,3.279,4.126Z" transform="translate(474.934 183.03)" fill="#fff"/>
      <path id="Path_3097" data-name="Path 3097" d="M244.993,152.969l-.984,3.471-.984-3.471a11.259,11.259,0,0,0-5.465-6.859h0a11.314,11.314,0,0,0,5.466-6.859l.984-3.471.984,3.471a11.5,11.5,0,0,0,5.465,6.859h0a11.45,11.45,0,0,0-5.465,6.859Z" transform="translate(411.62 235.273)" fill="#fff"/>
      <path id="Path_3098" data-name="Path 3098" d="M247.276,155.648l-.765,2.733-.765-2.733a8.8,8.8,0,0,0-4.236-5.3h0a8.663,8.663,0,0,0,4.236-5.274l.765-2.733.765,2.733a8.717,8.717,0,0,0,4.208,5.274h0a8.854,8.854,0,0,0-4.208,5.3Z" transform="translate(418.464 246.64)" fill="#fff"/>
      <path id="Path_3099" data-name="Path 3099" d="M109.256,140.377l-.738,2.733-.765-2.733a8.854,8.854,0,0,0-4.263-5.465h0a8.909,8.909,0,0,0,4.263-5.329l.765-2.733.738,2.733a8.909,8.909,0,0,0,4.263,5.329h0a8.854,8.854,0,0,0-4.263,5.465Z" transform="translate(179.31 219.799)" fill="#d5498f"/>
      <path id="Path_3100" data-name="Path 3100" d="M111.042,142.384l-.6,2.077-.574-2.077a6.914,6.914,0,0,0-3.307-4.126h0a6.832,6.832,0,0,0,3.307-4.126L110.5,132l.6,2.077a6.7,6.7,0,0,0,3.279,4.126h0A6.777,6.777,0,0,0,111.042,142.384Z" transform="translate(184.629 228.723)" fill="#d5498f"/>
      <path id="Path_3101" data-name="Path 3101" d="M54.541,187.3l27.327-14.975a13.5,13.5,0,0,0-15.987-6.4A76.928,76.928,0,0,0,47.6,172.709Z" transform="translate(82.466 286.393)" fill="#212121"/>
      <ellipse id="Ellipse_62" data-name="Ellipse 62" cx="12.625" cy="22.327" rx="12.625" ry="22.327" transform="translate(142.213 462.49) rotate(-21.535)" fill="#212121"/>
      <path id="Path_3102" data-name="Path 3102" d="M79.018,209.035l-9.565,5.192L52.92,172.8l9.947-5.329Z" transform="translate(91.685 290.184)" fill="#212121"/>
      <path id="Path_3103" data-name="Path 3103" d="M50.606,181.753c-.273,10.712,5.9,23.31,13.664,28.147s14.538,0,14.811-10.6-5.875-23.31-13.664-28.147S50.879,171.068,50.606,181.753Z" transform="translate(87.659 293.281)" fill="#303030"/>
      <path id="Path_3104" data-name="Path 3104" d="M52.074,180.329c-.191,7.679,4.263,16.724,9.92,20.222s10.466,0,10.658-7.624-4.236-16.752-9.838-20.086S52.292,172.623,52.074,180.329Z" transform="translate(90.208 297.192)" fill="#d3d3d3"/>
      <path id="Path_3105" data-name="Path 3105" d="M53.721,178.778a12.762,12.762,0,0,0,5.056,10.33c2.924,1.776,5.465,0,5.465-3.908a12.9,12.9,0,0,0-5.083-10.33C56.262,173.094,53.83,174.843,53.721,178.778Z" transform="translate(93.07 301.803)" fill="#303030"/>
      <path id="Path_3106" data-name="Path 3106" d="M54,178.461a10.712,10.712,0,0,0,4.236,8.636c2.4,1.476,4.427,0,4.509-3.252a10.576,10.576,0,0,0-4.208-8.608C56.241,173.761,54.192,175.209,54,178.461Z" transform="translate(93.556 302.64)" fill="#727272"/>
      <path id="Path_3107" data-name="Path 3107" d="M14.332,162.657l27.327-14.975a13.5,13.5,0,0,0-15.987-6.367A76.926,76.926,0,0,0,7.5,147.982Z" transform="translate(12.983 243.73)" fill="#212121"/>
      <path id="Path_3108" data-name="Path 3108" d="M3.336,147.359s32.793-25.114,58.481-30.06c10.685-2.1,21.862,3.471,30.771,4.454l9.264,9.209L32.194,171.27,4.648,155.557C2.133,153.972.685,148.67,3.336,147.359Z" transform="translate(3.32 202.433)" fill="#3f3f3f"/>
      <path id="Path_3109" data-name="Path 3109" d="M135.8,157.168c-3.115,3.607-9.346,9.045-21.589,17.162-29.57,19.57-50.12,17.49-50.12,17.49L48.76,163.1c17.025-7.324,42.658-17.818,53.48-19.566S127.108,150.664,135.8,157.168Z" transform="translate(84.476 248.317)" fill="#595959"/>
      <path id="Path_3110" data-name="Path 3110" d="M114.92,134.09l26.07,32.547s1.858,1.366-2.541,6.449c-8.69-6.559-22.736-15.385-33.558-13.664s-36.428,12.325-53.48,19.648L47.23,171.2Z" transform="translate(81.825 232.344)" fill="#727272"/>
      <path id="Path_3111" data-name="Path 3111" d="M167.613,164.527s-3.061,4.208-20.96,15.959c-16.7,10.931-46.73,21.152-46.73,21.152a404.457,404.457,0,0,0-37.411-26.426c-16.615-9.811-45.692-22.9-45.692-22.9l49.955-30.06s13.39-12.625,35.252-.383c8.2,4.591,23.064,14.265,43.888,27.71C153.676,154.607,161.464,160.072,167.613,164.527Z" transform="translate(29.132 201.908)" fill="#3f3f3f"/>
      <path id="Path_3112" data-name="Path 3112" d="M125.289,167.661s-14.484-9.373-35.17-21.862-47.6-29.049-47.6-29.049L40,117.433s11.177,7.132,21.671,13.308c8.39,5,62.58,38.614,62.58,38.614Z" transform="translate(69.297 202.299)" fill="#303030"/>
      <path id="Path_3113" data-name="Path 3113" d="M105.944,178.3s-14.484-9.4-35.17-21.862-47.6-29.076-47.6-29.076L20.6,128.1s11.177,7.132,21.671,13.308c8.526,5.028,62.635,38.668,62.635,38.668Z" transform="translate(35.682 220.683)" fill="#303030"/>
      <path id="Path_3114" data-name="Path 3114" d="M37.606,128.39l-14.238,2.077L8.83,137.955s28.038-2.9,30.907-3.99S37.606,128.39,37.606,128.39Z" transform="translate(15.288 222.468)" fill="#3f3f3f"/>
      <ellipse id="Ellipse_63" data-name="Ellipse 63" cx="12.625" cy="22.327" rx="12.625" ry="22.327" transform="translate(32.604 395.192) rotate(-21.535)" fill="#212121"/>
      <path id="Path_3115" data-name="Path 3115" d="M38.9,184.415l-9.54,5.165L12.8,148.152l9.947-5.3Z" transform="translate(22.167 247.523)" fill="#212121"/>
      <path id="Path_3116" data-name="Path 3116" d="M10.5,157.136c-.3,10.685,5.9,23.31,13.664,28.147s14.538,0,14.812-10.6-5.9-23.31-13.8-28.147S10.77,146.424,10.5,157.136Z" transform="translate(18.157 250.618)" fill="#303030"/>
      <path id="Path_3117" data-name="Path 3117" d="M12,155.812c-.191,7.706,4.236,16.752,9.92,20.222s10.439,0,10.658-7.6-4.236-16.752-9.92-20.25S12,148.133,12,155.812Z" transform="translate(20.777 254.401)" fill="#d3d3d3"/>
      <path id="Path_3118" data-name="Path 3118" d="M13.61,154.145a12.844,12.844,0,0,0,5.056,10.3c2.9,1.776,5.329,0,5.465-3.908a12.762,12.762,0,0,0-5.056-10.33C16.124,148.488,13.692,150.237,13.61,154.145Z" transform="translate(23.57 259.129)" fill="#303030"/>
      <path id="Path_3119" data-name="Path 3119" d="M13.93,153.858a10.658,10.658,0,0,0,4.208,8.608c2.432,1.476,4.454,0,4.536-3.252a10.74,10.74,0,0,0-4.208-8.608C16.035,149.13,14.122,150.579,13.93,153.858Z" transform="translate(24.124 259.962)" fill="#727272"/>
      <path id="Path_3120" data-name="Path 3120" d="M5.847,128c6.313,1.312,11.778,10.74,23.283,8.936,3.2-.519,13.09-3.962,21.1-3.17,8.526.847,13.172,4.154,20.714,8.909,6.012,3.771,27.328,16.615,43.724,27.765,9.127,6.231,15.467,9.947,17.763,14.019,1.612,2.733,7.16,16.806,12.625,27.765a29.511,29.511,0,0,0,4.1,5.957L255.05,201.566a50.448,50.448,0,0,1,9.209,17.49c1.312,4.236,5.466,14.921,3.115,24.431a38.1,38.1,0,0,1-19.84,23.666c-39.078,21.261-60.694,15.549-76.517,6.2.328-14.183-7.87-30.853-18.227-37.275s-19.129-.191-19.676,13.91l-73.541-45.17c-.383-3.744-2.05-15.877-4.017-19.457-3.962-7.214-14.128-17.326-18.8-16.97C21.89,169.457,27.6,185.2,25.056,183.64l-5.465-3.416C8.142,173.2,2.567,159.727.873,151.283-.165,146.583.6,131.115,5.847,128Z" transform="translate(0.809 221.792)" fill="#303030"/>
      <path id="Path_3121" data-name="Path 3121" d="M8.88,158.717c.492-15.741,10.275-22.682,21.862-15.549A40.636,40.636,0,0,1,44.05,157.979l6.149,4.072c10.931,7.515,58.617,36.428,76.189,47.058,3.8-1.968,8.635-1.612,13.828,1.585,11.7,7.16,20.824,25.742,20.468,41.565l-1.64-.984-2.323-1.421c0-.164-2.377-1.148-2.377-1.284.328-13.117-6.477-27.655-16.151-33.585a15.331,15.331,0,0,0-5.739-2.214l.465.3-6.285,1.148c-2.979,2.268-4.728,7.023-4.919,13.664v.41l-3.416-2.132a23.939,23.939,0,0,1,3.8-13.281L74.931,184.842c-6.5-3.853-25.278-13.117-25.278-13.117a43.15,43.15,0,0,1,1.612,13.008l-1.612-.984-2.35-1.421c0-.164-2.377-1.148-2.377-1.284a42.521,42.521,0,0,0-2.733-15.659l-.738-.465-5.793-8.963L27.709,148c-1.284-.874,1.2.465,5.793,3.252a26.7,26.7,0,0,0-4.728-3.689c-9.674-5.9-17.107-.355-17.462,12.735,0,0,1.011.492,1.011.628Z" transform="translate(15.374 243.216)" fill="#3f3f3f"/>
      <path id="Path_3122" data-name="Path 3122" d="M68.79,169.154c10.357,6.422,18.555,23.092,18.337,37.275l-1.448-.9-2.1-1.284v-.41c.3-11.723-6.477-25.551-15.139-30.88s-15.959,0-16.4,11.641v.383l-3.088-1.913C49.551,168.962,58.323,162.732,68.79,169.154Z" transform="translate(84.806 288.719)" fill="#232323"/>
      <path id="Path_3123" data-name="Path 3123" d="M62.065,123.2a30.334,30.334,0,0,0-21.452-4.673c-11.642,2.35-24.813,11.2-24.813,11.2l19.949,8.663Z" transform="translate(27.365 204.734)" fill="#727272" opacity="0.5"/>
      <path id="Path_3124" data-name="Path 3124" d="M28.548,144.514c10.494,6.422,18.665,23.092,18.337,37.275l-1.448-.875L43.36,179.63a2.076,2.076,0,0,1,0-.41c.3-11.751-6.477-25.579-15.167-30.88s-15.932,0-16.4,11.641a1.557,1.557,0,0,1,0,.355L8.9,158.4C9.337,144.35,18.109,138.119,28.548,144.514Z" transform="translate(15.409 246.051)" fill="#232323"/>
      <path id="Path_3125" data-name="Path 3125" d="M128.567,146s12.981,9.674,30.962,22.463c8.854,6.285,11.587,23.447-10.029,36.755-25.141,15.6-44.052,13.363-59.574,3.635C73.256,198.523,54.4,186.991,54.4,186.991s13.035.273,39.461-14.429A147.3,147.3,0,0,0,128.567,146Z" transform="translate(94.249 252.982)" fill="#3f3f3f"/>
      <path id="Path_3126" data-name="Path 3126" d="M109.53,187.573,64,160l-6.012,2.241S96.276,187.874,109.53,187.573Z" transform="translate(100.47 277.24)" fill="#727272" opacity="0.5"/>
      <path id="Path_3127" data-name="Path 3127" d="M89.532,147.39s21.561,14.648,29.842,21.862a15.358,15.358,0,0,1,3.689,17.353L75.65,156.791Z" transform="translate(131.07 255.39)" fill="#727272" opacity="0.5"/>
      <path id="Path_3128" data-name="Path 3128" d="M113.639,208.082a2.459,2.459,0,0,0,3.58-3.006c-4.1-10.357-11.887-29.213-15.385-31.618-4.536-3.115-20.359-13.145-39.68-25.333-14.292-8.991-26.972-16.834-33.094-15.3a77.255,77.255,0,0,0-13.664,8.2,4.29,4.29,0,0,0,.164,7.215Z" transform="translate(23.396 229.814)" fill="#303030"/>
      <path id="Path_3129" data-name="Path 3129" d="M92.393,116.52s-19.976,10.22-29.022,15.823c-13.418,8.2-31.4,17.544-31.4,17.544L11.75,154.505c5.466-3.17,0,0,10.74-5.657,15.3-8.062,32.028-18.063,34.733-19.648,3.744-2.159,10.931-5.711,14.839-7.57a52.634,52.634,0,0,1,20.332-5.11Z" transform="translate(20.347 201.9)" fill="#303030"/>
      <path id="Path_3130" data-name="Path 3130" d="M104.124,185.266a10.63,10.63,0,0,0-10.275-6.777c-3.416.3-3.853-.273-9.4-.956a38.668,38.668,0,0,1-14.73-5.465c-3.853-2.432-4.29,1.558-3.908,3.061a17.517,17.517,0,0,0,11.478,12.024C90.87,191.961,104.124,185.266,104.124,185.266Z" transform="translate(113.828 296.818)" fill="#fff"/>
      <path id="Path_3131" data-name="Path 3131" d="M88.86,185.166c-3.689.683-7.488,1.476-10,1.968l-.629-.765s17.6-3.443,30.06-11.5A43.178,43.178,0,0,0,120.26,163.55l.383,1.585a50.284,50.284,0,0,1-4.782,6.4C110.859,177.569,94.954,184.073,88.86,185.166Z" transform="translate(135.541 283.391)" fill="#303030"/>
      <path id="Path_3132" data-name="Path 3132" d="M88.842,186.5c-2.951.547-6.094,1.175-8.553,1.667L78.84,186.45c2.733-.492,6.422-1.2,9.947-2.022A88.594,88.594,0,0,0,111.8,173.77a24.6,24.6,0,0,0,8.2-9.1l.6,2.432a41.564,41.564,0,0,1-4.564,5.629C110.458,178.552,94.936,185.384,88.842,186.5Z" transform="translate(136.598 285.332)" fill="#303030"/>
      <path id="Path_3133" data-name="Path 3133" d="M110.444,175.714a23.966,23.966,0,0,0,7.515-8.034,8.526,8.526,0,0,1-2.951,6.34,53.917,53.917,0,0,1-10.439,7,153.219,153.219,0,0,1-17.189,7.57,7.1,7.1,0,0,1-6.449-.874c2.05-.41,4.318-.875,6.5-1.394a87.7,87.7,0,0,0,23.01-10.6Z" transform="translate(140.219 290.548)" fill="#303030"/>
      <path id="Path_3134" data-name="Path 3134" d="M111.137,174.428a29.652,29.652,0,0,0,8.2-8.2l.41,1.776v.246a56.224,56.224,0,0,1-4.236,5.684C110.427,180,94.522,186.48,88.428,187.6c-2.3.41-4.728.9-6.887,1.312h0l-1.722-2.1c2.487-.465,5.466-1.066,8.472-1.749a87.693,87.693,0,0,0,22.846-10.63Z" transform="translate(138.296 288.035)" fill="#303030"/>
      <path id="Path_3135" data-name="Path 3135" d="M114.4,172.6a56.218,56.218,0,0,0,4.236-5.6,9.154,9.154,0,0,1,.191,1.94,23.966,23.966,0,0,1-7.515,8.034A87.7,87.7,0,0,1,88.3,187.523c-2.186.519-4.454.984-6.5,1.394a7.379,7.379,0,0,1-1.366-1.257c2.159-.41,4.591-.9,6.886-1.312C93.411,185.145,109.315,178.669,114.4,172.6Z" transform="translate(139.353 289.369)" fill="#595959"/>
      <path id="Path_3136" data-name="Path 3136" d="M87.993,184.893c6.094-1.12,21.616-7.952,27.082-13.664a41.563,41.563,0,0,0,4.564-5.629l.437,1.722a29.649,29.649,0,0,1-8.2,8.2,87.7,87.7,0,0,1-23.01,10.548c-2.924.683-5.985,1.285-8.471,1.749L79.33,186.56C81.9,186.068,85.041,185.44,87.993,184.893Z" transform="translate(137.447 286.943)" fill="#595959"/>
      <path id="Path_3137" data-name="Path 3137" d="M112.455,174.792a88.6,88.6,0,0,1-23.01,10.548c-3.525.82-7.214,1.53-9.947,2.022l-1.038-1.257c2.514-.492,6.313-1.284,10-1.968,6.094-1.093,21.862-7.6,27.082-13.664a50.281,50.281,0,0,0,4.618-6.4l.383,1.585a24.594,24.594,0,0,1-8.089,9.127Z" transform="translate(135.939 284.31)" fill="#595959"/>
      <path id="Path_3138" data-name="Path 3138" d="M95.71,158s.273,5.465.137,11.478a43.068,43.068,0,0,0,1.612,10.6,54.329,54.329,0,0,0,2.241-11.42A21.862,21.862,0,0,0,95.71,158Z" transform="translate(165.829 273.775)" fill="#fff"/>
      <path id="Path_3139" data-name="Path 3139" d="M117.625,178.763s.273-10.931-6.723-6.422a119.12,119.12,0,0,1-16.4,9.319c-5.138,2.268-8.854,3.908-10.357,6.5a30.606,30.606,0,0,0-1.749,9.729s4.837,0,21.507-8.963C116.4,182.343,117.625,178.763,117.625,178.763Z" transform="translate(142.766 296.735)" fill="#303030"/>
      <path id="Path_3140" data-name="Path 3140" d="M107.624,172.28l-.164,6.586s-5.165,3.58-9.264,5.957c-2.733,1.667-12.926,6.012-12.926,6.012l.164-6.34s7.242-3.033,12.926-6.121a66.593,66.593,0,0,0,9.264-6.094Z" transform="translate(147.739 298.518)" fill="#fff"/>
      <path id="Path_3141" data-name="Path 3141" d="M162.1,168.74A27.792,27.792,0,0,1,157.869,185c-4.919,6.75-17.216,18.719-38.614,24.239-23.994,6.176-39.106,3.607-47.8-.574s-9.729-3.935-9.838-8.2,3.771-.956,3.771-.956,3.689,6.613,22.135,8.2a102.124,102.124,0,0,0,32.984-3.443A94.99,94.99,0,0,0,148.441,190,30.552,30.552,0,0,0,162.1,168.74Z" transform="translate(106.758 292.384)" fill="#232323"/>
      <path id="Path_3142" data-name="Path 3142" d="M90.568,179.664a1.339,1.339,0,0,1,1.066,2.05,11.969,11.969,0,0,1-2.459,3.17c-3.115,2.733-17.025,2.541-18.555,1.038a3.744,3.744,0,0,1,3.361-5.766C79.09,180.62,86.141,179.472,90.568,179.664Z" transform="translate(121.317 311.275)" fill="#303030"/>
      <path id="Path_3143" data-name="Path 3143" d="M99.431,165.38s-1.175,4.728-1.913,6.559,2.569,2.733,2.569,2.733a48.152,48.152,0,0,0-.656-9.291Z" transform="translate(168.776 286.562)" fill="#303030"/>
      <path id="Path_3144" data-name="Path 3144" d="M87.147,174.337c.383,1.312,2.733,1.476,5.465.383s4.372-3.061,4.017-4.345-2.733-1.476-5.465-.383S86.819,173.053,87.147,174.337Z" transform="translate(150.918 293.318)" fill="#fff"/>
      <path id="Path_3145" data-name="Path 3145" d="M142.976,147.988s-1.776,3.771-11.177,10.74-28.776,19.867-41.62,24.6-21.042,7.706-24.13,3.8-18.419-37.2-18.419-37.2l1.858-.711s16.4,34.05,18.419,35.963,18.337-3.744,47.359-21.561c10.931-6.75,25.032-17.6,25.032-17.6Z" transform="translate(82.518 253.016)" fill="#303030"/>
      <path id="Path_3146" data-name="Path 3146" d="M114.227,134.09l1.257,1.53a146.615,146.615,0,0,1-23.174,16.4c-12.871,7.242-43.505,20.2-43.505,20.2l-1.175-1.73s28.475-11.15,43.724-20.769a229.542,229.542,0,0,0,22.873-15.631Z" transform="translate(82.518 232.344)" fill="#303030"/>
      <path id="Path_3147" data-name="Path 3147" d="M22.676,154.45,97.99,200.688l-.109,4.29-1.093-.683L21.61,158.167Z" transform="translate(37.432 267.623)" fill="#232323"/>
      <path id="Path_3148" data-name="Path 3148" d="M35.784,141.85l-.574,22.272L67.429,183.77s.3-8.417.3-11.833a18.009,18.009,0,0,0-8.5-15.139C50.623,151.169,35.784,141.85,35.784,141.85Z" transform="translate(60.998 245.791)" fill="#595959"/>
      <path id="Path_3149" data-name="Path 3149" d="M55.782,152.967l-.574,22.272L21.24,154.032s.191-8.444.711-10.931l1.858-8.881Z" transform="translate(36.791 232.57)" fill="#595959"/>
      <path id="Path_3150" data-name="Path 3150" d="M29.753,133.83s-1.448,6.258-1.858,8.5-.82,10.576-.82,10.576-7.706-4.946-9.483-5.93-3.17-3.635,1.694-7.078a112.039,112.039,0,0,1,10.466-6.067Z" transform="translate(27.622 231.894)" fill="#595959"/>
      <path id="Path_3151" data-name="Path 3151" d="M3.271,130.43l.437.3a4.509,4.509,0,0,1,1.94,3.99v5.056a72.278,72.278,0,0,0,.492,9.182l-4.782-3.307A19.266,19.266,0,0,1,.347,134.939a6.832,6.832,0,0,1,2.924-4.509Z" transform="translate(-0.005 226.003)" fill="#303030"/>
      <path id="Path_3152" data-name="Path 3152" d="M28.847,154.208A164.339,164.339,0,0,1,4.5,139.506,36.817,36.817,0,0,1,.372,135.27s-1.339,1.858,3.061,8.2c1.476,2.159,17.189,14.183,22.053,15.987C27.89,154.208,28.847,154.208,28.847,154.208Z" transform="translate(0.299 234.389)" fill="#3f3f3f"/>
      <path id="Path_3153" data-name="Path 3153" d="M170.308,244.811l-40.718-23.8s7.1-13.855,24.6-9.045A116.554,116.554,0,0,1,181.513,222.9Z" transform="translate(224.535 365.522)" fill="#c47f10"/>
      <ellipse id="Ellipse_64" data-name="Ellipse 64" cx="33.859" cy="19.157" rx="33.859" ry="19.157" transform="translate(325.614 640.432) rotate(-66.922)" fill="#212121"/>
      <path id="Path_3154" data-name="Path 3154" d="M125.42,276.551l14.292,8.253,26.726-62.17-14.866-8.444Z" transform="translate(217.309 371.138)" fill="#212121"/>
      <ellipse id="Ellipse_65" data-name="Ellipse 65" cx="33.859" cy="19.157" rx="33.859" ry="19.157" transform="translate(339.935 648.687) rotate(-66.922)" fill="#303030"/>
      <path id="Path_3155" data-name="Path 3155" d="M161.6,234.177c0,11.669-7.1,25.251-15.85,30.279s-15.85-.3-15.85-11.969,7.078-25.223,15.85-30.279S161.6,222.508,161.6,234.177Z" transform="translate(225.072 381.73)" fill="#d3d3d3"/>
      <path id="Path_3156" data-name="Path 3156" d="M149.4,231.481a19.375,19.375,0,0,1-8.2,15.467c-4.454,2.6-8.2-.164-8.2-6.121a19.4,19.4,0,0,1,8.2-15.467C145.653,222.818,149.4,225.578,149.4,231.481Z" transform="translate(230.443 388.853)" fill="#303030"/>
      <path id="Path_3157" data-name="Path 3157" d="M147,231.08a16.123,16.123,0,0,1-6.72,12.82c-3.717,2.159-6.75-.137-6.75-5.083a16.206,16.206,0,0,1,6.75-12.9C144,223.81,147,226.106,147,231.08Z" transform="translate(231.362 390.102)" fill="#727272"/>
      <path id="Path_3158" data-name="Path 3158" d="M232.118,209.061l-40.718-23.8s7.132-13.855,24.6-9.045a116.606,116.606,0,0,1,27.327,10.931Z" transform="translate(331.636 303.576)" fill="#c47f10"/>
      <path id="Path_3159" data-name="Path 3159" d="M312.961,187.443s-48.807-39.379-87.448-48.042c-16.1-3.58-33.422,4.4-46.839,5.465L164.19,159.023l103.844,63.755,42.6-22.764C314.6,197.773,316.923,189.766,312.961,187.443Z" transform="translate(284.488 239.959)" fill="#f9bd3a"/>
      <path id="Path_3160" data-name="Path 3160" d="M99.27,196.889c4.564,5.465,13.664,14.046,32.055,26.836,44.079,30.88,75.315,28.53,75.315,28.53L231.016,209.3c-25.524-11.778-63.974-28.721-80.316-31.809S112.688,187.243,99.27,196.889Z" transform="translate(171.998 306.729)" fill="#595959"/>
      <path id="Path_3161" data-name="Path 3161" d="M139.062,163,98.371,211.26s-2.733,2.022,3.607,9.92c13.418-9.647,35.061-22.491,51.43-19.4s54.655,20.031,80.316,31.809l6.668-11.751Z" transform="translate(169.426 282.438)" fill="#727272"/>
      <path id="Path_3162" data-name="Path 3162" d="M112.89,207.071s4.482,6.5,31.181,25.032c24.868,17.271,70.013,33.941,70.013,33.941s32.246-24.458,57.8-38.7,70.2-32.93,70.2-32.93l-74.577-47.741s-19.7-19.321-53.425-1.694c-12.68,6.613-35.526,20.742-67.663,40.308C134.424,192.451,122.4,200.4,112.89,207.071Z" transform="translate(195.598 238.367)" fill="#ffd364"/>
      <path id="Path_3163" data-name="Path 3163" d="M114,211.88s22.354-13.664,54.218-31.864,73.347-42.166,73.347-42.166l3.88,1.2s-17.244,10.384-33.394,19.321c-13.117,7.269-96.521,56.185-96.521,56.185Z" transform="translate(197.521 238.86)" fill="#f9bd3a"/>
      <path id="Path_3164" data-name="Path 3164" d="M143,228.74s22.354-13.664,54.218-31.864,73.347-42.166,73.347-42.166l3.853,1.2S257.2,166.3,241.051,175.233C227.907,182.5,144.5,231.418,144.5,231.418Z" transform="translate(247.771 268.074)" fill="#f9bd3a"/>
      <path id="Path_3165" data-name="Path 3165" d="M195.944,156.4l21.534,3.744,21.862,11.887s-42.44-5.465-46.73-7.242S195.944,156.4,195.944,156.4Z" transform="translate(331.464 271.002)" fill="#ffd364"/>
      <path id="Path_3166" data-name="Path 3166" d="M228.307,197.545c0,16.233-9.865,35.089-22.053,42.139s-22.053-.437-22.053-16.67,9.865-35.116,22.053-42.139S228.307,181.312,228.307,197.545Z" transform="translate(319.16 308.834)" fill="#212121"/>
      <path id="Path_3167" data-name="Path 3167" d="M187.23,240.829l14.292,8.253,26.726-62.17-14.866-8.472Z" transform="translate(324.41 309.192)" fill="#212121"/>
      <path id="Path_3168" data-name="Path 3168" d="M233.547,200.572c0,16.4-9.865,35.116-22.053,42.139s-22.053-.437-22.053-16.67,9.865-35.089,22.053-42.139S233.547,184.34,233.547,200.572Z" transform="translate(328.24 314.059)" fill="#303030"/>
      <ellipse id="Ellipse_66" data-name="Ellipse 66" cx="24.321" cy="13.773" rx="24.321" ry="13.773" transform="translate(517.519 544.344) rotate(-66.922)" fill="#d3d3d3"/>
      <path id="Path_3169" data-name="Path 3169" d="M211.167,195.763a19.4,19.4,0,0,1-8.2,15.467c-4.482,2.6-8.2-.164-8.2-6.121a19.4,19.4,0,0,1,8.2-15.467C207.532,187.073,211.167,189.806,211.167,195.763Z" transform="translate(337.475 326.93)" fill="#303030"/>
      <ellipse id="Ellipse_67" data-name="Ellipse 67" cx="10.357" cy="5.848" rx="10.357" ry="5.848" transform="translate(531.092 534.581) rotate(-66.922)" fill="#727272"/>
      <path id="Path_3170" data-name="Path 3170" d="M473.593,156.4c-9.619,1.776-18.309,15.823-35.526,12.625-4.837-.875-19.676-6.5-31.864-5.629-12.953.929-20.14,5.766-31.809,12.68-9.237,5.466-42.166,24.13-67.335,40.363-14.1,9.073-23.857,14.484-27.519,20.578-2.541,4.208-11.5,25.2-20.25,41.592a42.138,42.138,0,0,1-6.5,8.991L92.76,258.2A75.643,75.643,0,0,0,78,284.4c-2.186,6.395-8.827,22.436-5.684,36.947,2.733,13.172,12.188,26.918,29.131,36.7,58.426,33.777,91.41,25.988,115.732,12.407,0-21.534,13.145-46.457,29.268-55.775s29.186.492,29.3,21.862l113.327-65.586c.711-5.684,3.717-24.021,6.832-29.377,6.285-10.767,22.135-25.688,29.186-25,22.545,2.214,13.227,25.879,17.134,23.611l8.608-4.974c17.654-10.193,26.644-30.416,29.514-43.15C481.955,185.067,481.409,161.565,473.593,156.4Z" transform="translate(123.855 271.002)" fill="#eaaa28"/>
      <path id="Path_3171" data-name="Path 3171" d="M356.6,203.112c0-23.857-14.675-34.788-32.656-24.4a61.213,61.213,0,0,0-20.769,21.862c-3.006,1.858-6.149,3.826-9.4,5.93C276.75,217.435,203.4,259.41,176.267,274.823c-5.684-3.143-13.035-2.733-21.07,1.858-17.982,10.384-32.574,38.258-32.793,62.2l2.487-1.421,3.607-2.077c0-.246,3.662-1.612,3.662-1.858,0-19.867,10.931-41.647,25.825-50.255a22.626,22.626,0,0,1,8.8-3.143l-.738.437,9.51,1.968c4.4,3.607,6.887,10.931,6.887,20.988v.629l5.3-3.061a36.92,36.92,0,0,0-5.247-20.332l72.691-40.691c9.975-5.465,38.86-18.911,38.86-18.911-1.612,3.689-2.487,10.248-2.979,19.676l2.487-1.421,3.607-2.077c0-.246,3.662-1.612,3.662-1.858a64.9,64.9,0,0,1,4.755-23.638l1.175-.656,9.155-13.363,12.352-11.751c1.995-1.284-1.858.683-8.909,4.7a38.423,38.423,0,0,1,7.3-5.465c14.921-8.608,25.961.137,25.961,20,0,.191-1.53.683-1.53.875Z" transform="translate(212.076 302.856)" fill="#ffd364"/>
      <path id="Path_3172" data-name="Path 3172" d="M154.068,216.553c-16.123,9.319-29.213,34.241-29.268,55.775l2.214-1.284,3.225-1.858v-.629c0-17.818,10.931-38.5,24.185-46.211s24.185.465,24.185,18.282v.574l4.755-2.733C183.254,217.045,170.191,207.234,154.068,216.553Z" transform="translate(216.235 369.13)" fill="#db9519"/>
      <path id="Path_3173" data-name="Path 3173" d="M173,147.607s15.167-10.221,32.793-6.231,37.193,17.954,37.193,17.954l-30.607,12.352Z" transform="translate(299.753 243.368)" fill="#ffd364" opacity="0.5"/>
      <path id="Path_3174" data-name="Path 3174" d="M215.878,180.8c-16.123,9.319-29.213,34.269-29.268,55.775l2.241-1.257,3.225-1.886v-.6c0-17.818,10.931-38.532,24.185-46.238s24.212.465,24.212,18.282v.574l4.755-2.733C245.063,181.295,232,171.484,215.878,180.8Z" transform="translate(323.336 307.184)" fill="#db9519"/>
      <path id="Path_3175" data-name="Path 3175" d="M135,180.66s-20.058,14.183-47.823,32.793c-13.664,9.182-18.528,35.089,13.664,56.131,37.685,24.6,66.269,21.862,90.181,7.98,25.715-15.03,54.874-31.673,54.874-31.673s-19.785,0-59.273-23.447A223.812,223.812,0,0,1,135,180.66Z" transform="translate(132.8 313.039)" fill="#f9bd3a"/>
      <path id="Path_3176" data-name="Path 3176" d="M104.1,242.717l70.15-40.008,9.045,3.662S124.268,243.7,104.1,242.717Z" transform="translate(180.367 351.246)" fill="#ffd364" opacity="0.5"/>
      <path id="Path_3177" data-name="Path 3177" d="M133.462,182.78s-33.312,21.343-46.129,32.028-6.422,26.1-6.422,26.1l73.238-43.314Z" transform="translate(137.423 316.712)" fill="#ffd364" opacity="0.5"/>
      <path id="Path_3178" data-name="Path 3178" d="M148.568,273.948a3.744,3.744,0,0,1-5.329-4.7c6.613-15.577,19.129-43.724,24.6-47.331,7.023-4.536,31.427-19.129,61.214-36.837,22-13.09,41.538-24.6,50.774-21.862,3.58.984,13.363,7.652,20.5,12.735a6.5,6.5,0,0,1-.547,10.931Z" transform="translate(247.668 282.112)" fill="#303030"/>
      <path id="Path_3179" data-name="Path 3179" d="M160.21,137.549s29.9,16.4,43.369,25.169c20.058,13.172,46.921,27.847,46.921,27.847L281,198.38c-8.2-5.028,0,0-16.041-8.991-22.9-12.844-47.85-28.667-51.922-31.181-5.465-3.443-16.4-9.1-22.163-12.051C179.066,140.118,163.872,137.085,160.21,137.549Z" transform="translate(277.591 238.258)" fill="#595959"/>
      <path id="Path_3180" data-name="Path 3180" d="M99.44,239.329c3.2-6.094,8.827-10.685,15.686-9.893,5.165.6,5.875-.219,14.292-1.066a58.262,58.262,0,0,0,22.545-7.679c5.93-3.553,6.477,2.514,5.821,4.782a26.59,26.59,0,0,1-17.872,17.79C119.28,250.014,99.44,239.329,99.44,239.329Z" transform="translate(172.292 380.513)" fill="#fff"/>
      <path id="Path_3181" data-name="Path 3181" d="M126.037,240.82c5.466,1.175,11.314,2.514,15.085,3.361l.984-1.148S115.543,237.1,97.124,224.4a65.013,65.013,0,0,1-17.708-17.63l-.656,2.378a72.984,72.984,0,0,0,6.75,9.865C93.08,228.413,116.855,238.88,126.037,240.82Z" transform="translate(136.459 358.281)" fill="#303030"/>
      <path id="Path_3182" data-name="Path 3182" d="M125.4,242.763c4.427.929,9.182,2.022,12.9,2.733l2.241-2.541c-4.1-.875-9.674-2.1-14.975-3.471-10.193-2.733-24.868-10.412-34.487-16.916A37.492,37.492,0,0,1,79.161,208.44l-1.011,3.689a62.612,62.612,0,0,0,6.723,8.717C92.934,229.919,116.217,240.9,125.4,242.763Z" transform="translate(135.402 361.174)" fill="#303030"/>
      <path id="Path_3183" data-name="Path 3183" d="M88.454,225.506A36.373,36.373,0,0,1,77.523,212.99a12.708,12.708,0,0,0,4.044,9.647A81.981,81.981,0,0,0,97.09,233.568a233.464,233.464,0,0,0,25.824,12.243,10.931,10.931,0,0,0,9.811-1.12c-3.088-.683-6.5-1.476-9.811-2.35C112.721,239.744,97.964,231.983,88.454,225.506Z" transform="translate(134.307 369.058)" fill="#303030"/>
      <path id="Path_3184" data-name="Path 3184" d="M90.283,223.545A44.161,44.161,0,0,1,78.368,210.81l-.738,2.733v.355a87.019,87.019,0,0,0,6.2,8.8c7.46,9.373,31.317,19.867,40.5,21.862l10.439,2.3h0l2.733-3.115c-3.8-.793-8.39-1.858-12.789-3.006C114.549,237.81,99.9,230.049,90.283,223.545Z" transform="translate(134.501 365.281)" fill="#303030"/>
      <path id="Path_3185" data-name="Path 3185" d="M84.029,220.719a87.007,87.007,0,0,1-6.2-8.8,13.664,13.664,0,0,0-.355,2.924A36.374,36.374,0,0,0,88.4,227.36c9.619,6.477,24.267,14.238,34.46,16.888,3.307.875,6.723,1.667,9.811,2.35a10.384,10.384,0,0,0,2.159-1.8l-10.439-2.3C115.346,240.587,91.489,230.093,84.029,220.719Z" transform="translate(134.224 367.204)" fill="#595959"/>
      <path id="Path_3186" data-name="Path 3186" d="M125.832,240.389c-9.182-1.913-32.465-12.9-40.527-21.862a62.6,62.6,0,0,1-6.723-8.717l-.683,2.6a44.161,44.161,0,0,0,11.915,12.735c9.619,6.5,24.267,14.265,34.487,16.916,4.4,1.148,8.991,2.214,12.789,3.006l1.64-1.886C135.014,242.466,130.259,241.373,125.832,240.389Z" transform="translate(134.969 363.548)" fill="#595959"/>
      <path id="Path_3187" data-name="Path 3187" d="M90.435,224.18c9.619,6.5,24.294,14.238,34.487,16.916,5.3,1.366,10.931,2.6,14.975,3.471l1.64-1.858c-3.771-.847-9.51-2.186-15.085-3.361-9.182-1.94-33.039-12.407-40.527-21.862a73,73,0,0,1-6.75-9.865L78.52,210a37.493,37.493,0,0,0,11.915,14.18Z" transform="translate(136.043 359.754)" fill="#595959"/>
      <path id="Path_3188" data-name="Path 3188" d="M80.045,198.2s-.656,8.335-.656,17.408A67.061,67.061,0,0,1,76.656,231.6s-3.389-12.8-2.956-17.408A32.793,32.793,0,0,1,80.04,198.2Z" transform="translate(127.632 343.431)" fill="#fff"/>
      <path id="Path_3189" data-name="Path 3189" d="M76,229.709s0-16.7,10.439-9.483A178.8,178.8,0,0,0,110.87,235.01c7.734,3.635,13.309,6.285,15.5,10.3s2.3,14.839,2.3,14.839-7.324-.383-32.246-14.429C77.694,235.175,76,229.709,76,229.709Z" transform="translate(131.676 378.464)" fill="#303030"/>
      <path id="Path_3190" data-name="Path 3190" d="M78.85,220v9.975s7.679,5.466,13.828,9.428c4.017,2.6,19.375,9.592,19.375,9.592v-9.6s-10.931-4.892-19.375-9.783A103.833,103.833,0,0,1,78.85,220Z" transform="translate(136.615 381.205)" fill="#fff"/>
      <path id="Path_3191" data-name="Path 3191" d="M71.572,214.45s-1.421,14.4,5.766,24.841,25.333,29.049,57.606,38.258c36.1,10.33,59.137,7.023,72.5,1.011s14.893-5.465,15.221-11.86-5.465-1.995-5.465-1.995-5.875,9.92-33.913,11.642a155.273,155.273,0,0,1-49.9-6.5c-14.128-4.208-28.065-12.789-41.756-22.764C72.365,233.087,71.572,214.45,71.572,214.45Z" transform="translate(123.807 371.588)" fill="#db9519"/>
      <path id="Path_3192" data-name="Path 3192" d="M103.968,231.823a2.05,2.05,0,0,0-1.749,3.061,19.976,19.976,0,0,0,3.607,4.892c4.646,4.263,25.743,4.564,28.093,2.35a5.684,5.684,0,0,0-4.837-8.881C121.212,233.517,110.636,231.714,103.968,231.823Z" transform="translate(176.645 401.683)" fill="#303030"/>
      <path id="Path_3193" data-name="Path 3193" d="M72.8,209.37a91.772,91.772,0,0,0,2.733,10c1.148,2.787-3.99,3.88-3.99,3.88A72.553,72.553,0,0,1,72.8,209.37Z" transform="translate(123.948 362.786)" fill="#303030"/>
      <path id="Path_3194" data-name="Path 3194" d="M97.49,223.582c-.629,1.968-4.29,2.132-8.2.355s-6.531-4.782-5.9-6.75,4.29-2.132,8.2-.355S98.118,221.641,97.49,223.582Z" transform="translate(144.319 373.579)" fill="#fff"/>
      <path id="Path_3195" data-name="Path 3195" d="M96.44,183.557s2.541,5.793,16.4,16.724c13.5,10.548,42.877,31.263,62.143,38.969s31.618,12.516,36.455,6.7,29.4-55.666,29.4-55.666l-2.733-1.148s-26.152,50.993-29.35,53.808-27.628-6.422-71.051-34.6c-16.4-10.685-37.275-27.683-37.275-27.683Z" transform="translate(167.094 313.039)" fill="#303030"/>
      <path id="Path_3196" data-name="Path 3196" d="M114.12,163l-1.94,2.3a221.347,221.347,0,0,0,34.487,25.934c19.129,11.5,65.176,32.328,65.176,32.328l1.831-2.541s-42.713-18.036-65.586-33.258A347.851,347.851,0,0,1,114.12,163Z" transform="translate(194.367 282.438)" fill="#303030"/>
      <path id="Path_3197" data-name="Path 3197" d="M261.527,195.82,145.44,262.909v6.531l1.722-.984L262.976,201.5Z" transform="translate(251.999 339.307)" fill="#db9519"/>
      <path id="Path_3198" data-name="Path 3198" d="M199.492,176.17v33.667L149.92,238.559V220.577a30.2,30.2,0,0,1,3.061-11.669,29.241,29.241,0,0,1,10.33-10.931C176.619,189.752,199.492,176.17,199.492,176.17Z" transform="translate(259.761 305.259)" fill="#595959"/>
      <path id="Path_3199" data-name="Path 3199" d="M170.43,192.4v33.831l52.332-30.8s0-12.844-.656-16.724c-.6-3.389-2.432-13.664-2.432-13.664Z" transform="translate(295.3 285.99)" fill="#595959"/>
      <path id="Path_3200" data-name="Path 3200" d="M190.2,164.58s1.94,9.537,2.459,12.981.82,16.041.82,16.041,11.887-7.187,14.648-8.581,4.946-5.465-2.268-10.931A168.479,168.479,0,0,0,190.2,164.58Z" transform="translate(329.557 285.176)" fill="#595959"/>
      <path id="Path_3201" data-name="Path 3201" d="M223.522,160.22l-.683.437a6.886,6.886,0,0,0-3.115,5.766V174.1a110.1,110.1,0,0,1-1.093,13.882l7.16-4.482a29.186,29.186,0,0,0,1.94-16.205,10.248,10.248,0,0,0-4.209-7.075Z" transform="translate(378.819 277.621)" fill="#303030"/>
      <path id="Path_3202" data-name="Path 3202" d="M205.58,195.163a249.336,249.336,0,0,0,37.52-21.288,58.476,58.476,0,0,0,6.422-6.285s1.94,2.733-4.974,12.352c-2.323,3.2-26.617,20.824-34.077,23.365C207.028,195.218,205.58,195.163,205.58,195.163Z" transform="translate(356.206 290.392)" fill="#ffd364"/>
    </g>
  </g>
</svg>
