<svg xmlns="http://www.w3.org/2000/svg" width="50" height="50" viewBox="0 0 50 50">
  <g id="Med_Pay" data-name="Med Pay" transform="translate(-14411 -1783)">
    <g id="Group_192" data-name="Group 192">
      <g id="Ellipse_65" data-name="Ellipse 65" transform="translate(14411 1783)" fill="#fff" stroke="#dc0000" stroke-width="0.5">
        <circle cx="25" cy="25" r="25" stroke="none"/>
        <circle cx="25" cy="25" r="24.75" fill="none"/>
      </g>
      <g id="accident" transform="translate(14291.695 1790.454)">
        <g id="XMLID_532_" transform="translate(137.483 0)">
          <path id="XMLID_535_" d="M140.764,93.472l2.315.79,2.184-6.257h-4.54a3.224,3.224,0,0,0-3.217,3.2s-.023,4.574-.023,4.578a1.364,1.364,0,0,0,.92,1.322l.816.279.979-2.867.01,0c.008-1.7.005-1.051.017-3.3a.27.27,0,0,1,.539,0Z" transform="translate(-137.483 -81.474)" fill="#dc0000"/>
          <circle id="XMLID_1191_" cx="2.817" cy="2.817" r="2.817" transform="translate(4.079 0)" fill="#dc0000"/>
          <path id="XMLID_1193_" d="M217.407,201.6h0a1.359,1.359,0,1,0,.879-2.573Z" transform="translate(-211.474 -184.251)" fill="#dc0000"/>
          <path id="XMLID_1195_" d="M192.172,91.208a3.224,3.224,0,0,0-3.217-3.2h-1.2L185.4,94.744l.29.1a2.844,2.844,0,0,1-1.838,5.383l-2.172-.742s0,13.8,0,14.589a1.631,1.631,0,0,0,3.262,0V101.392a.358.358,0,0,1,.358-.358.347.347,0,0,1,.347.347v12.692a1.631,1.631,0,0,0,3.262,0L188.885,91.2a.284.284,0,0,1,.569,0c0,.008,0,.016,0,.024l.05,9.987a1.359,1.359,0,0,0,1.359,1.353h.007a1.359,1.359,0,0,0,1.352-1.366Z" transform="translate(-178.403 -81.474)" fill="#dc0000"/>
        </g>
      </g>
    </g>
  </g>
</svg>
