<svg xmlns="http://www.w3.org/2000/svg" width="50" height="50" viewBox="0 0 50 50">
  <g id="Personal_Umbrella_Coverage" data-name="Personal Umbrella Coverage" transform="translate(-14411 -1783)">
    <g id="Group_192" data-name="Group 192">
      <g id="Ellipse_65" data-name="Ellipse 65" transform="translate(14411 1783)" fill="#fff" stroke="#dc0000" stroke-width="0.5">
        <circle cx="25" cy="25" r="25" stroke="none"/>
        <circle cx="25" cy="25" r="24.75" fill="none"/>
      </g>
      <g id="accident_1_" data-name="accident (1)" transform="translate(14419.757 1789.369)">
        <g id="XMLID_22_" transform="translate(0 5.875)">
          <path id="XMLID_30_" d="M193.328,17.537l-3.589-2.728,2.815-2.489a.6.6,0,0,0-.466-1.048l-3.764.427L189.981,7.5a.6.6,0,0,0-.909-.71l-4.048,2.89-.863-3.358a.6.6,0,0,0-1.135-.088l-1.463,3.4-4.086-2.1a.6.6,0,0,0-.741.915l2.623,3.208-2.771,1.315a.6.6,0,0,0,.149,1.135l2.854.526a1.571,1.571,0,0,1,1,.655.066.066,0,0,0,.011.011l.583-.673a.6.6,0,0,0-.345-.985l-2.059-.38,1.785-.847a.6.6,0,0,0,.208-.924L179.5,9.933l2.088,1.075a.6.6,0,0,0,.828-.3l1.021-2.377.642,2.5a.6.6,0,0,0,.932.34l3.1-2.217-1.277,3.233a.6.6,0,0,0,.627.818l2.865-.325-1.936,1.712a.6.6,0,0,0,.034.929l1.869,1.421-1.962-.48a.6.6,0,0,0-.734.7l.415,2.207L186.346,17.1a.6.6,0,0,0-1,.093l-1.282,2.371-.541-3.216a.6.6,0,0,0-.762-.478l-1.563.457a2.318,2.318,0,0,1,.08.577l.008.65,1.163-.34.719,4.273a.6.6,0,0,0,1.122.186l1.685-3.117,2.6,3.21a.6.6,0,0,0,1.058-.49l-.683-3.628,3.865.946a.6.6,0,0,0,.507-1.063Z" transform="translate(-165.399 -5.875)" fill="#dc0000"/>
          <circle id="XMLID_536_" cx="2.209" cy="2.209" r="2.209" transform="translate(4.911 9.784)" fill="#dc0000"/>
          <path id="XMLID_819_" d="M19.712,183.345l-4.3-2.184a1.28,1.28,0,0,0-.591-.139l-6.356.058L13.3,180l.834-.8.206.58.477,0a2.533,2.533,0,0,1,1.166.274l1.425.724-1.538-4.333a1.279,1.279,0,0,0-2.108-.479l-1.891,1.881-.7-2.857,2.742-.758a1.066,1.066,0,0,0,.782-1.041l-.048-3.819a1.066,1.066,0,1,0-2.132.027l.038,3-2.246.621a1.489,1.489,0,0,0-1.214-.228c-2.824.694-2.647.645-2.788.7l1.079.542-3.965-.846-1.355-3.43a1.066,1.066,0,0,0-1.983.783L1.64,174.5a1.066,1.066,0,0,0,.769.651l4.379.934-1.162.024,1.625,6.606,0,0a1.279,1.279,0,0,0,1.228.926h.012l6.043-.055,4.017,2.042a1.279,1.279,0,1,0,1.159-2.28Z" transform="translate(0 -158.322)" fill="#dc0000"/>
        </g>
      </g>
    </g>
  </g>
</svg>
