<svg xmlns="http://www.w3.org/2000/svg" width="50" height="50" viewBox="0 0 50 50">
  <g id="Personal_Injury_Protection_" data-name="Personal Injury Protection&apos;" transform="translate(-14411 -1783)">
    <g id="Group_192" data-name="Group 192">
      <g id="Ellipse_65" data-name="Ellipse 65" transform="translate(14411 1783)" fill="#fff" stroke="#dc0000" stroke-width="0.5">
        <circle cx="25" cy="25" r="25" stroke="none"/>
        <circle cx="25" cy="25" r="24.75" fill="none"/>
      </g>
      <g id="hospitalization" transform="translate(14421 1705.534)">
        <g id="XMLID_103_" transform="translate(0 91.647)">
          <path id="XMLID_105_" d="M30.483,108.13h-18a1.97,1.97,0,0,1-1.974-1.9,17.8,17.8,0,0,1,.031-1.877H9.668l-7.911-4.035V92.526a.879.879,0,0,0-1.757,0v16.027a.879.879,0,0,0,.879.879H2.41v.515a.57.57,0,0,0,.57.57H5.837a.57.57,0,0,0,.57-.57v-.515H25.531v.515a.57.57,0,0,0,.57.57h2.857a.57.57,0,0,0,.57-.57v-.515h1.346a.879.879,0,0,0,.879-.879v-.881A1.97,1.97,0,0,1,30.483,108.13Z" transform="translate(0 -91.647)" fill="#dc0000"/>
          <circle id="XMLID_914_" cx="2.348" cy="2.348" r="2.348" transform="translate(3.665 3.926)" fill="#dc0000"/>
          <path id="XMLID_924_" d="M118.736,168.42l1.4.523a15.55,15.55,0,0,1,.345-1.614l-.314-.489,3.421,3.307a1.137,1.137,0,0,0,1.03.292l4.421-.969a1.133,1.133,0,0,0,.864-1.349h0a1.135,1.135,0,0,0-1.347-.864h0l-3.828.839h0l-3.335-3.224a12.458,12.458,0,0,1,.875-1.539l-1.433-.534a1.588,1.588,0,0,0-2.04.931h0l-.989,2.65h0A1.588,1.588,0,0,0,118.736,168.42Z" transform="translate(-109.431 -157.703)" fill="#dc0000"/>
          <path id="XMLID_927_" d="M176.328,171.044a2.22,2.22,0,0,1,.951,4.338l-4.421.969a2.165,2.165,0,0,1-2.178-.766l-1.121-1.742a15.787,15.787,0,0,0-.208,3.238.569.569,0,0,0,.569.549h18a.57.57,0,0,0,.562-.478l.439-2.7a4.049,4.049,0,0,0-2.88-4.543,45.34,45.34,0,0,0-11.409-2,13.458,13.458,0,0,0-2.551.217,9.087,9.087,0,0,0-1.494,2.357l2.317,1.306Z" transform="translate(-157.438 -162.553)" fill="#dc0000"/>
        </g>
      </g>
    </g>
  </g>
</svg>
