<svg xmlns="http://www.w3.org/2000/svg" width="50" height="50" viewBox="0 0 50 50">
  <g id="StateMinimum" transform="translate(-14133 -1783)">
    <g id="Ellipse_62" data-name="Ellipse 62" transform="translate(14133 1783)" fill="#fff" stroke="#dc0000" stroke-width="0.5">
      <circle cx="25" cy="25" r="25" stroke="none"/>
      <circle cx="25" cy="25" r="24.75" fill="none"/>
    </g>
    <g id="car-insurance" transform="translate(14141 1738.675)">
      <path id="Path_3084" data-name="Path 3084" d="M34.391,76.518,28.536,81.5v1.79a.668.668,0,0,1-.709.646H23.921a.675.675,0,0,1-.709-.646V79.28a.671.671,0,0,1,.274-.543l7.154-4.443.709-9.435a1.465,1.465,0,0,1,2.928-.057L34.986,75A1.387,1.387,0,0,1,34.391,76.518ZM6.3,73V65.95a4.021,4.021,0,0,1,.435-1.9l3.471-7.211a2.9,2.9,0,0,1,2.385-1.515h9.819a2.8,2.8,0,0,1,2.436,1.515l3.471,7.211a4.193,4.193,0,0,1,.435,1.9v7.057a.584.584,0,0,1-.543.543H25.448a.546.546,0,0,1-.543-.543V71.262H10.151V73a.584.584,0,0,1-.543.543H6.845A.589.589,0,0,1,6.3,73Zm18.82-7.325a1.738,1.738,0,0,0,0,3.477,1.738,1.738,0,0,0,0-3.477ZM9.447,63.834h16.16l-2.385-4.987a1.749,1.749,0,0,0-1.9-1.2h-7.64a1.646,1.646,0,0,0-1.841,1.2ZM8.2,67.408a1.752,1.752,0,0,0,1.738,1.738,1.738,1.738,0,0,0,0-3.477A1.752,1.752,0,0,0,8.2,67.408Zm3.362,11.386L4.409,74.35,3.7,64.915A1.434,1.434,0,0,0,2.236,63.4,1.5,1.5,0,0,0,.721,64.858L.012,75.06a1.4,1.4,0,0,0,.595,1.515l5.856,4.986v1.79A.668.668,0,0,0,7.171,84h3.963a.675.675,0,0,0,.709-.646V79.337A.748.748,0,0,0,11.563,78.794Z" transform="translate(0 0)" fill="#dc0000"/>
    </g>
  </g>
</svg>
